<?xml version="1.0" encoding="UTF-8"?>
<svg id="Layer_1" data-name="Layer 1" xmlns="http://www.w3.org/2000/svg" viewBox="0 0 273 334.72">
  <defs>
    <style>
      .cls-1 {
        fill: #f0ad3b;
        font-family: BitcountGridSingle-MediumSquare, 'Bitcount Grid Single';
        font-size: 35.54px;
        font-weight: 500;
      }

      .cls-2 {
        stroke-dasharray: 5.93 5.93;
      }

      .cls-2, .cls-3, .cls-4, .cls-5 {
        fill: none;
      }

      .cls-2, .cls-3, .cls-4, .cls-5, .cls-6 {
        stroke: #f0ad3b;
        stroke-miterlimit: 10;
      }

      .cls-2, .cls-5 {
        stroke-width: 3px;
      }

      .cls-3, .cls-6 {
        stroke-width: 2px;
      }

      .cls-4 {
        stroke-width: 4px;
      }

      .cls-6 {
        fill: #3a3328;
      }
    </style>
  </defs>
  <g>
    <rect class="cls-3" x="21.79" y="180.55" width="44.03" height="16.58"/>
    <path class="cls-3" d="M45.24,230.88v46.89c0,1.58-1.28,2.86-2.86,2.86h-20.02c-1.58,0-2.86-1.28-2.86-2.86v-49.18"/>
    <path class="cls-3" d="M225.36,230.88v46.89c0,1.58,1.28,2.86,2.86,2.86h20.02c1.58,0,2.86-1.28,2.86-2.86v-49.18"/>
    <rect class="cls-3" x="113.29" y="180.55" width="44.03" height="21.16"/>
    <rect class="cls-3" x="204.78" y="180.55" width="44.03" height="16.58"/>
    <path class="cls-3" d="M224.67,117.65H45.94c-2.74,0-4.81-2.49-4.3-5.18l10.94-55.3c.39-2.07,2.2-3.57,4.3-3.57h156.86c2.1,0,3.91,1.5,4.3,3.57l10.94,55.3c.51,2.69-1.56,5.18-4.3,5.18Z"/>
    <path class="cls-3" d="M135.87,39.32c-18.01,0-63.19-.01-79.2,1.7-16.01,1.72-17.73,10.29-18.87,13.15s-20.59,76.63-20.59,76.63l1.14,4v10.86l-2.29,2.29v32.59s-1.72,7.44-1.72,12.02,2.86,16.58,2.86,16.58l-2.29,1.7v11.45s.57,6.29,5.15,6.29h9.95l42.09,6.29h63.47"/>
    <path class="cls-3" d="M135.3,39.32c18.01,0,63.19-.01,79.2,1.7,16.01,1.72,17.73,10.29,18.87,13.15,1.14,2.86,20.59,76.63,20.59,76.63l-1.14,4v10.86s2.29,2.29,2.29,2.29v32.59s1.72,7.44,1.72,12.02-2.86,16.58-2.86,16.58l2.29,1.72v11.44s-.57,6.29-5.15,6.29c-4.57,0-9.95,0-9.95,0l-42.09,6.29h-63.47"/>
    <line class="cls-3" x1="17.22" y1="209.15" x2="253.96" y2="209.15"/>
    <line class="cls-3" x1="18.36" y1="134.81" x2="252.81" y2="134.81"/>
    <line class="cls-3" x1="252.81" y1="145.67" x2="18.36" y2="145.67"/>
    <path class="cls-3" d="M135.59,205.71H21.22l.57-60.61v-10.86l24.02-85.2s2.29-5.15,6.09-7.21"/>
    <path class="cls-3" d="M135.02,205.71h114.37l-.57-60.61v-10.86l-23.98-85.2s-2.29-5.15-6.09-7.21"/>
    <line class="cls-3" x1="21.79" y1="180.55" x2="249.38" y2="180.55"/>
    <line class="cls-3" x1="25.22" y1="173.69" x2="245.95" y2="173.69"/>
    <line class="cls-3" x1="25.22" y1="228.59" x2="245.95" y2="228.59"/>
    <line class="cls-3" x1="21.79" y1="201.71" x2="249.38" y2="201.71"/>
    <line class="cls-3" x1="25.22" y1="167.97" x2="245.95" y2="167.97"/>
    <polyline class="cls-3" points="135.59 19.87 48.67 19.87 41.56 47.09"/>
    <polyline class="cls-3" points="135.59 19.87 222.51 19.87 229.61 47.09"/>
    <rect class="cls-3" x="47.53" y="9.01" width="174.98" height="8.01"/>
    <path class="cls-3" d="M182.48,9.01h-94.92v-1.35c0-3.67,2.98-6.65,6.65-6.65h81.62c3.67,0,6.65,2.98,6.65,6.65v1.35Z"/>
  </g>
  <line class="cls-4" y1="321.4" x2="273" y2="321.4"/>
  <g>
    <line class="cls-5" x1=".51" y1="309.57" x2="3.5" y2="309.83"/>
    <line class="cls-2" x1="9.41" y1="310.34" x2="266.54" y2="332.71"/>
    <line class="cls-5" x1="269.5" y1="332.97" x2="272.49" y2="333.23"/>
  </g>
  <g>
    <circle class="cls-6" cx="135.19" cy="144.27" r="41.19"/>
    <polygon class="cls-6" points="114.63 151.76 147.04 125.9 147.45 167.36 134.93 151.39 114.63 151.76"/>
    <text class="cls-1" transform="translate(125.7 92.59)"><tspan x="0" y="0">N</tspan></text>
  </g>
</svg>