<?xml version="1.0" encoding="UTF-8"?>
<svg id="Layer_1" data-name="Layer 1" xmlns="http://www.w3.org/2000/svg" viewBox="0 0 652 337.19">
  <defs>
    <style>
      .cls-1, .cls-2, .cls-3, .cls-4 {
        fill: none;
      }

      .cls-1, .cls-2, .cls-3, .cls-4, .cls-5 {
        stroke: #f0ad3b;
        stroke-miterlimit: 10;
      }

      .cls-1, .cls-5 {
        stroke-width: 2px;
      }

      .cls-6 {
        font-family: BitcountMonoSingle-BookSquare, 'Bitcount Mono Single';
        font-size: 36.83px;
      }

      .cls-6, .cls-7 {
        fill: #f0ad3b;
      }

      .cls-2 {
        stroke-dasharray: 6.04 6.04;
      }

      .cls-2, .cls-4 {
        stroke-width: 3px;
      }

      .cls-3 {
        stroke-width: 4px;
      }

      .cls-5 {
        fill: #3a3328;
      }
    </style>
  </defs>
  <g>
    <path class="cls-1" d="M81.26,18.15h43.66l5.52,5.15h105.5v-5.15h18.3v5.15h147.98l3.04-5.15h114.6l23.44,20.01v4.03l54.9,69.16h7.49l20.25,23.73-2.57,45.75h-18.53c-3.21,0-6.17,1.74-7.74,4.54l-8.33,14.9h30.31l-.57,4.86h14.01v12.01s-.57,4.57-2.86,5.72-32.59,6.29-32.59,6.29h-8.01l.29-4.86-60.33,8.29-17.14-36.09c-2.63-5.55-8.22-9.08-14.36-9.08h-35.12c-1.99,0-11.7,1.97-14.92,4.86-10.79,9.67-17.25,23.28-18.22,37.74l-.6,8.86h-228.45l-5.44-22.78c-2.47-10.33-8.56-19.51-17.33-25.51-2.79-1.91-10-3.18-11.83-3.18h-38.51c-2.05,0-5.26.96-8.62,2.42-7.72,3.38-13.54,10.03-15.97,18.1l-4.96,16.93h-46.32v1.72H18.64v-18.87h20.01l-11.72-63.76h1.72v-10.86h-2.29v-1.72L81.26,18.15Z"/>
    <line class="cls-1" x1="543.29" y1="42.2" x2="70.11" y2="42.2"/>
    <path class="cls-1" d="M476.96,191.99c-24.32,0-44.03,19.71-44.03,44.03s19.71,44.03,44.03,44.03,44.03-19.71,44.03-44.03-19.71-44.03-44.03-44.03ZM476.96,262.9c-14.84,0-26.88-12.03-26.88-26.88s12.03-26.88,26.88-26.88,26.88,12.03,26.88,26.88-12.03,26.88-26.88,26.88Z"/>
    <path class="cls-1" d="M147.02,191.99c-24.32,0-44.03,19.71-44.03,44.03s19.71,44.03,44.03,44.03,44.03-19.71,44.03-44.03-19.71-44.03-44.03-44.03ZM147.02,262.9c-14.84,0-26.88-12.03-26.88-26.88s12.03-26.88,26.88-26.88,26.88,12.03,26.88,26.88-12.03,26.88-26.88,26.88Z"/>
    <path class="cls-1" d="M625.62,139.42h-10.88s-4.26,1.79-4.26,5.44v19.86s0,4.11,4.72,4.11h9.01l1.41-29.42Z"/>
    <path class="cls-1" d="M616.39,139.42c2.39,5.18,2.81,11.32,2.81,14.24s-.42,9.18-2.42,15.17"/>
    <polyline class="cls-1" points="241.08 42.2 241.08 234.88 407.51 234.88 407.51 42.2"/>
    <rect class="cls-1" x="249.95" y="53.04" width="146.39" height="55.47" rx="9.31" ry="9.31"/>
    <path class="cls-1" d="M228.04,108.5h-118.74c-3.71,0-6.36-3.58-5.29-7.13l10.94-44.42c.71-2.33,2.85-3.92,5.29-3.92h107.81c2.94,0,5.32,2.38,5.32,5.32v44.82c0,2.94-2.38,5.32-5.32,5.32Z"/>
    <path class="cls-1" d="M77.53,106.45c-.16.54-.66.91-1.23.91h-17.65c-.13,0-.23-.13-.19-.26l17.69-48.06c.32-.86,1.15-1.44,2.07-1.44h12.46c.72,0,1.24.7,1.03,1.39l-14.17,47.45Z"/>
    <path class="cls-1" d="M562.28,108.5h-130.88c-2.94,0-5.32-2.38-5.32-5.32v-44.82c0-2.94,2.38-5.32,5.32-5.32h93.66c2.11,0,4.09,1.04,5.28,2.78l34.62,47.59c1.48,2.16-.06,5.1-2.68,5.1Z"/>
    <polyline class="cls-1" points="619.35 205.14 591.33 205.14 589.33 224.3"/>
    <line class="cls-1" x1="104.99" y1="200.05" x2="37.51" y2="200.05"/>
    <line class="cls-1" x1="619.63" y1="200.05" x2="518.99" y2="200.05"/>
    <line class="cls-1" x1="440.08" y1="200.05" x2="187.9" y2="200"/>
    <line class="cls-1" x1="581.32" y1="133.38" x2="28.93" y2="133.32"/>
    <line class="cls-1" x1="581.32" y1="144.24" x2="26.65" y2="144.19"/>
    <line class="cls-1" x1="516.42" y1="53.32" x2="516.42" y2="108.79"/>
    <line class="cls-1" x1="518.71" y1="53.32" x2="518.71" y2="108.79"/>
    <path class="cls-1" d="M419.05,42.2v132.06l25.32,10.29h54.04c7.87,0,15.04,4.5,18.47,11.57l3.54,7.3,11.44,26.3,49.73-6.86v-107.06c0-4.39-1.31-8.68-3.77-12.32l-49.68-61.29"/>
    <polyline class="cls-1" points="111.56 42.17 88.12 115.94 80.11 120.51 80.11 224.87"/>
    <polyline class="cls-1" points="51.24 224.87 51.24 207.72 38.66 207.72"/>
    <rect class="cls-1" x="428.93" y="18.15" width="5.03" height="24.05"/>
    <path class="cls-1" d="M527.86,108.74h3.29s5.86-2.53,5.86-11.68-5.72-12.58-5.72-12.58h-3.43v24.26Z"/>
    <circle class="cls-1" cx="426.66" cy="185.72" r="5.99"/>
    <rect class="cls-1" x="66.39" y="190.85" width="13.72" height="5.15"/>
    <rect class="cls-1" x="81.26" y="7.29" width="207" height="8.01"/>
    <path class="cls-1" d="M399.19,23.3h-107.5V1h85.2c12.32,0,22.3,9.98,22.3,22.3h0Z"/>
    <path class="cls-1" d="M604.6,196.85h-5.47c-1.61,0-2.66-1.7-1.94-3.14l3.9-7.79c.85-1.71,2.6-2.79,4.51-2.79h3.67c1.2,0,2.08,1.13,1.79,2.29l-1.99,7.94c-.51,2.05-2.35,3.49-4.47,3.49Z"/>
    <line class="cls-1" x1="621.4" y1="180.84" x2="617.79" y2="200.28"/>
    <path class="cls-1" d="M533.23,42.2l57.82,70.02s4,6.29,10.29,6.29h10.44"/>
    <path class="cls-1" d="M547.95,59.93l57.82,70.02s4,6.29,10.29,6.29h9.3"/>
    <line class="cls-1" x1="598.19" y1="111.36" x2="590.33" y2="111.36"/>
  </g>
  <g>
    <line class="cls-3" x1="652" y1="319.97" y2="319.97"/>
    <g>
      <line class="cls-4" x1="651.92" y1="304.25" x2="648.92" y2="304.39"/>
      <line class="cls-2" x1="642.89" y1="304.68" x2="6.09" y2="335.4"/>
      <line class="cls-4" x1="3.08" y1="335.55" x2=".08" y2="335.69"/>
    </g>
  </g>
  <g>
    <rect class="cls-5" x="249.5" y="93.03" width="147" height="107"/>
    <g>
      <path class="cls-1" d="M301.01,154.84v-43.25h-19.08v43.25c-3.86,2.9-6.36,7.52-6.36,12.72,0,8.78,7.12,15.9,15.9,15.9s15.9-7.12,15.9-15.9c0-5.2-2.5-9.82-6.36-12.72Z"/>
      <rect class="cls-7" x="285.75" y="143.75" width="11.45" height="7.41"/>
      <rect class="cls-7" x="285.75" y="153.16" width="11.45" height="7.41"/>
      <rect class="cls-7" x="285.75" y="134.3" width="11.45" height="7.41"/>
      <path class="cls-7" d="M295.2,126.85v3.41h-7.45v-3.41h7.45M297.2,124.85h-11.45v7.41h11.45v-7.41h0Z"/>
      <path class="cls-7" d="M295.2,117.4v3.41h-7.45v-3.41h7.45M297.2,115.4h-11.45v7.41h11.45v-7.41h0Z"/>
      <circle class="cls-7" cx="291.47" cy="167.56" r="12.09"/>
    </g>
    <text class="cls-6" transform="translate(315.61 147.06)"><tspan x="0" y="0">72°</tspan></text>
  </g>
</svg>